<?xml version="1.0" encoding="utf-8"?>
<!-- Generator: Adobe Illustrator 26.5.0, SVG Export Plug-In . SVG Version: 6.00 Build 0)  -->
<svg version="1.1" id="Camada_1" xmlns="http://www.w3.org/2000/svg" xmlns:xlink="http://www.w3.org/1999/xlink" x="0px" y="0px"
	 viewBox="0 0 595 176" style="enable-background:new 0 0 595 176;" xml:space="preserve">
<style type="text/css">
	
		.st0{clip-path:url(#SVGID_00000093135075925760976250000007722742704903548800_);fill:url(#SVGID_00000140696174609009987500000008902658015283202701_);}
	
		.st1{clip-path:url(#SVGID_00000020378628858962006210000009268596131960175495_);fill:url(#SVGID_00000090998590286856018680000005410407972266467978_);}
	
		.st2{clip-path:url(#SVGID_00000104682873617742277870000015969825675775306117_);fill:url(#SVGID_00000183245391856043196180000000175459162195501481_);}
	
		.st3{clip-path:url(#SVGID_00000003799305558851654730000007437164057432049061_);fill:url(#SVGID_00000152974149927359132160000000066374652855631532_);}
	
		.st4{clip-path:url(#SVGID_00000065776483517787763360000013741885570122656183_);fill:url(#SVGID_00000054229711492784177910000016559821091430816394_);}
	.st5{fill:#7F7F7F;}
</style>
<g>
	<defs>
		<path id="SVGID_1_" d="M389.6,53.2l-30,64.3l-29.3-64.1c-1.3-2.8-4-4.5-7.1-4.5L310.4,49c-5.6,0.1-9.2,5.8-6.9,10.9l40.6,88.6
			c2.7,6,8.6,9.9,15.2,10c0.1,0,0.2,0,0.3,0c6.5,0,12.5-3.8,15.3-9.7l41-89c2.3-5-1.3-10.8-6.9-10.9l-12.3-0.2c0,0-0.1,0-0.1,0
			C393.6,48.8,390.9,50.5,389.6,53.2"/>
	</defs>
	<clipPath id="SVGID_00000110430461962695863710000000764307004752666015_">
		<use xlink:href="#SVGID_1_"  style="overflow:visible;"/>
	</clipPath>
	
		<linearGradient id="SVGID_00000065062363309143641110000009719431675692943255_" gradientUnits="userSpaceOnUse" x1="-516.3772" y1="483.1647" x2="-513.8326" y2="483.1647" gradientTransform="matrix(0 -96.98 -96.98 0 47217.0547 -49823.1953)">
		<stop  offset="0" style="stop-color:#101C84"/>
		<stop  offset="0.1598" style="stop-color:#142285"/>
		<stop  offset="0.3811" style="stop-color:#1E3487"/>
		<stop  offset="0.6385" style="stop-color:#2F528C"/>
		<stop  offset="0.921" style="stop-color:#467A91"/>
		<stop  offset="1" style="stop-color:#4D8793"/>
	</linearGradient>
	
		<rect x="301.2" y="48.8" style="clip-path:url(#SVGID_00000110430461962695863710000000764307004752666015_);fill:url(#SVGID_00000065062363309143641110000009719431675692943255_);" width="117" height="109.8"/>
</g>
<g>
	<defs>
		<path id="SVGID_00000146478378650037627840000006223388609402656897_" d="M92.2,48.8c-32.2,0-58.4,26.2-58.4,58.4h14.7
			c6.4,0,12-4.2,14.1-10.3c4.3-12.2,15.9-21,29.6-21h31.3c2.5,0,4.6-2,4.6-4.6v-18c0-2.5-2-4.6-4.6-4.6H92.2z"/>
	</defs>
	<clipPath id="SVGID_00000158740531584583875960000011292650582153492406_">
		<use xlink:href="#SVGID_00000146478378650037627840000006223388609402656897_"  style="overflow:visible;"/>
	</clipPath>
	
		<linearGradient id="SVGID_00000074438441939242079370000003117837541214551453_" gradientUnits="userSpaceOnUse" x1="-516.3772" y1="484.9101" x2="-513.8326" y2="484.9101" gradientTransform="matrix(0 -96.98 -96.98 0 47107.4688 -49823.1953)">
		<stop  offset="0" style="stop-color:#101C84"/>
		<stop  offset="0.1598" style="stop-color:#142285"/>
		<stop  offset="0.3811" style="stop-color:#1E3487"/>
		<stop  offset="0.6385" style="stop-color:#2F528C"/>
		<stop  offset="0.921" style="stop-color:#467A91"/>
		<stop  offset="1" style="stop-color:#4D8793"/>
	</linearGradient>
	
		<rect x="33.7" y="48.8" style="clip-path:url(#SVGID_00000158740531584583875960000011292650582153492406_);fill:url(#SVGID_00000074438441939242079370000003117837541214551453_);" width="94.3" height="58.4"/>
</g>
<g>
	<defs>
		<path id="SVGID_00000176763885316203564170000014989335708302647695_" d="M90.2,100.1c-6.4,0-12,4.2-14.1,10.3
			c-4.3,12.2-15.9,21-29.6,21H15.2c-2.5,0-4.6,2-4.6,4.6v18c0,2.5,2,4.6,4.6,4.6h31.3c32.2,0,58.4-26.2,58.4-58.4H90.2z"/>
	</defs>
	<clipPath id="SVGID_00000134944730853854839450000003635792465170993576_">
		<use xlink:href="#SVGID_00000176763885316203564170000014989335708302647695_"  style="overflow:visible;"/>
	</clipPath>
	
		<linearGradient id="SVGID_00000106111920526091618180000015969178718593116812_" gradientUnits="userSpaceOnUse" x1="-516.3772" y1="485.0547" x2="-513.8326" y2="485.0547" gradientTransform="matrix(0 -96.98 -96.98 0 47098.3945 -49823.1953)">
		<stop  offset="0" style="stop-color:#101C84"/>
		<stop  offset="0.1598" style="stop-color:#142285"/>
		<stop  offset="0.3811" style="stop-color:#1E3487"/>
		<stop  offset="0.6385" style="stop-color:#2F528C"/>
		<stop  offset="0.921" style="stop-color:#467A91"/>
		<stop  offset="1" style="stop-color:#4D8793"/>
	</linearGradient>
	
		<rect x="10.6" y="100.1" style="clip-path:url(#SVGID_00000134944730853854839450000003635792465170993576_);fill:url(#SVGID_00000106111920526091618180000015969178718593116812_);" width="94.3" height="58.4"/>
</g>
<g>
	<defs>
		<path id="SVGID_00000103250060352289523290000017270322759393526460_" d="M156.8,103.6c0-16.2,13.2-29.4,29.4-29.4
			c16.2,0,29.4,13.2,29.4,29.4c0,16.2-13.2,29.4-29.4,29.4C170,133.1,156.8,119.9,156.8,103.6 M131.3,103.6
			c0,30.3,24.6,54.9,54.9,54.9c10.8,0,20.9-3.2,29.4-8.6v4.4c0,2.3,1.9,4.2,4.3,4.2h17c2.4,0,4.3-1.9,4.3-4.2V48.8h-8.9
			c-6.7,0-12.4,3.9-15,9.5c-8.8-6.1-19.5-9.6-31-9.6C155.9,48.7,131.3,73.4,131.3,103.6"/>
	</defs>
	<clipPath id="SVGID_00000147901180035934409640000011627964786295544468_">
		<use xlink:href="#SVGID_00000103250060352289523290000017270322759393526460_"  style="overflow:visible;"/>
	</clipPath>
	
		<linearGradient id="SVGID_00000093174708245578858090000010140384159639109279_" gradientUnits="userSpaceOnUse" x1="-516.3772" y1="484.2508" x2="-513.8326" y2="484.2508" gradientTransform="matrix(0 -96.98 -96.98 0 47148.8672 -49823.1953)">
		<stop  offset="0" style="stop-color:#101C84"/>
		<stop  offset="1" style="stop-color:#4D8793"/>
	</linearGradient>
	
		<rect x="131.3" y="48.7" style="clip-path:url(#SVGID_00000147901180035934409640000011627964786295544468_);fill:url(#SVGID_00000093174708245578858090000010140384159639109279_);" width="109.8" height="109.8"/>
</g>
<g>
	<defs>
		<path id="SVGID_00000088091939835032193960000018224230794266139560_" d="M260.9,17.3v105.3c0,0.1,0,0.2,0,0.3h0
			c0,12.3,4,23.7,10.6,33c2.3,3.2,7,3.5,9.8,0.7l9.6-9.5c2.2-2.2,2.5-5.6,0.8-8.2c-2.9-4.6-4.6-10.1-4.6-16h0c0-0.1,0-0.2,0-0.3V32
			c0-11.3-9.2-20.5-20.5-20.5C263.5,11.5,260.9,14.1,260.9,17.3"/>
	</defs>
	<clipPath id="SVGID_00000034053408608906912530000015996473853073502618_">
		<use xlink:href="#SVGID_00000088091939835032193960000018224230794266139560_"  style="overflow:visible;"/>
	</clipPath>
	
		<linearGradient id="SVGID_00000036966061956700102850000015796714098275682997_" gradientUnits="userSpaceOnUse" x1="-516.3772" y1="483.6802" x2="-513.8326" y2="483.6802" gradientTransform="matrix(0 -96.98 -96.98 0 47184.5 -49823.1953)">
		<stop  offset="0" style="stop-color:#101C84"/>
		<stop  offset="1" style="stop-color:#4D8793"/>
	</linearGradient>
	
		<rect x="260.9" y="11.5" style="clip-path:url(#SVGID_00000034053408608906912530000015996473853073502618_);fill:url(#SVGID_00000036966061956700102850000015796714098275682997_);" width="32.5" height="147.9"/>
</g>
<path class="st5" d="M430.2,112l1.9-4.1c1.8,1.2,4.4,2,6.9,2c2.5,0,3.3-0.8,3.3-1.8c0-3.4-11.7-0.7-11.7-8.4c0-3.8,3.4-6.5,9.1-6.5
	c2.6,0,5.3,0.5,7.3,1.8l-1.8,4.1c-1.8-1.1-3.8-1.5-5.7-1.5c-2.4,0-3.4,0.8-3.4,1.9c0,3.3,11.7,0.8,11.7,8.2c0,3.8-3.3,6.5-9.1,6.5
	C435.5,114.1,432.1,113.3,430.2,112"/>
<path class="st5" d="M476.1,109.8h-9.4l-1.7,4h-5.4l9.1-20.2h5.5l9.1,20.2h-5.5L476.1,109.8z M474.4,105.8l-3-7.3l-3.1,7.3H474.4z"
	/>
<path class="st5" d="M496.1,105V93.6h5.5v11.3c0,3.1,1.4,4.7,4.1,4.7c2.6,0,4-1.6,4-4.7V93.6h5.5V105c0,5.6-3.5,9.1-9.5,9.1
	C499.6,114.1,496.1,110.7,496.1,105 M507.3,86.1h5.9l-6.4,5.1h-4.3L507.3,86.1z"/>
<path class="st5" d="M531.6,93.6h9.5c6.9,0,11.5,3.9,11.5,10.1c0,6.2-4.6,10.1-11.5,10.1h-9.5V93.6z M540.9,109.4c3.7,0,6-2,6-5.7
	c0-3.7-2.4-5.8-6-5.8h-3.8v11.5H540.9z"/>
<polygon class="st5" points="584,109.5 584,113.8 567.7,113.8 567.7,93.6 583.6,93.6 583.6,97.8 573.2,97.8 573.2,101.5 
	582.4,101.5 582.4,105.5 573.2,105.5 573.2,109.5 "/>
</svg>
